TITLE ""
FILE "2Q_t_0271-0287.mp3" MP3
  TRACK 01 AUDIO
    TITLE "2Q_t_0271-0287_01"
    INDEX 01 00:00:00
  TRACK 02 AUDIO
    TITLE "2Q_t_0271-0287_02"
    INDEX 01 00:00:12
  TRACK 03 AUDIO
    TITLE "2Q_t_0271-0287_03"
    INDEX 01 00:01:31
  TRACK 04 AUDIO
    TITLE "2Q_t_0271-0287_04"
    INDEX 01 00:02:01
  TRACK 05 AUDIO
    TITLE "2Q_t_0271-0287_05"
    INDEX 01 00:03:13
  TRACK 06 AUDIO
    TITLE "2Q_t_0271-0287_06"
    INDEX 01 00:03:58
  TRACK 07 AUDIO
    TITLE "2Q_t_0271-0287_07"
    INDEX 01 00:05:04
  TRACK 08 AUDIO
    TITLE "2Q_t_0271-0287_08"
    INDEX 01 00:05:57
  TRACK 09 AUDIO
    TITLE "2Q_t_0271-0287_09"
    INDEX 01 00:08:55
  TRACK 10 AUDIO
    TITLE "2Q_t_0271-0287_10"
    INDEX 01 00:09:23
  TRACK 11 AUDIO
    TITLE "2Q_t_0271-0287_11"
    INDEX 01 00:10:28
  TRACK 12 AUDIO
    TITLE "2Q_t_0271-0287_12"
    INDEX 01 00:11:06
  TRACK 13 AUDIO
    TITLE "2Q_t_0271-0287_13"
    INDEX 01 00:12:17
  TRACK 14 AUDIO
    TITLE "2Q_t_0271-0287_14"
    INDEX 01 00:12:62
  TRACK 15 AUDIO
    TITLE "2Q_t_0271-0287_15"
    INDEX 01 00:14:12
  TRACK 16 AUDIO
    TITLE "2Q_t_0271-0287_16"
    INDEX 01 00:14:57
  TRACK 17 AUDIO
    TITLE "2Q_t_0271-0287_17"
    INDEX 01 00:16:70
  TRACK 18 AUDIO
    TITLE "2Q_t_0271-0287_18"
    INDEX 01 00:17:38
  TRACK 19 AUDIO
    TITLE "2Q_t_0271-0287_19"
    INDEX 01 00:18:43
  TRACK 20 AUDIO
    TITLE "2Q_t_0271-0287_20"
    INDEX 01 00:19:21
  TRACK 21 AUDIO
    TITLE "2Q_t_0271-0287_21"
    INDEX 01 00:21:22
  TRACK 22 AUDIO
    TITLE "2Q_t_0271-0287_22"
    INDEX 01 00:21:67
  TRACK 23 AUDIO
    TITLE "2Q_t_0271-0287_23"
    INDEX 01 00:23:05
  TRACK 24 AUDIO
    TITLE "2Q_t_0271-0287_24"
    INDEX 01 00:23:52
  TRACK 25 AUDIO
    TITLE "2Q_t_0271-0287_25"
    INDEX 01 00:25:73
  TRACK 26 AUDIO
    TITLE "2Q_t_0271-0287_26"
    INDEX 01 00:26:43
  TRACK 27 AUDIO
    TITLE "2Q_t_0271-0287_27"
    INDEX 01 00:27:68
  TRACK 28 AUDIO
    TITLE "2Q_t_0271-0287_28"
    INDEX 01 00:28:44
  TRACK 29 AUDIO
    TITLE "2Q_t_0271-0287_29"
    INDEX 01 00:29:49
  TRACK 30 AUDIO
    TITLE "2Q_t_0271-0287_30"
    INDEX 01 00:30:19
  TRACK 31 AUDIO
    TITLE "2Q_t_0271-0287_31"
    INDEX 01 00:31:30
  TRACK 32 AUDIO
    TITLE "2Q_t_0271-0287_32"
    INDEX 01 00:32:02
  TRACK 33 AUDIO
    TITLE "2Q_t_0271-0287_33"
    INDEX 01 00:35:18
  TRACK 34 AUDIO
    TITLE "2Q_t_0271-0287_34"
    INDEX 01 00:35:64
  TRACK 35 AUDIO
    TITLE "2Q_t_0271-0287_35"
    INDEX 01 00:36:69
  TRACK 36 AUDIO
    TITLE "2Q_t_0271-0287_36"
    INDEX 01 00:37:47
  TRACK 37 AUDIO
    TITLE "2Q_t_0271-0287_37"
    INDEX 01 00:39:59
  TRACK 38 AUDIO
    TITLE "2Q_t_0271-0287_38"
    INDEX 01 00:40:27
  TRACK 39 AUDIO
    TITLE "2Q_t_0271-0287_39"
    INDEX 01 00:41:60
  TRACK 40 AUDIO
    TITLE "2Q_t_0271-0287_40"
    INDEX 01 00:42:34
  TRACK 41 AUDIO
    TITLE "2Q_t_0271-0287_41"
    INDEX 01 00:43:57
  TRACK 42 AUDIO
    TITLE "2Q_t_0271-0287_42"
    INDEX 01 00:44:25
  TRACK 43 AUDIO
    TITLE "2Q_t_0271-0287_43"
    INDEX 01 00:45:42
  TRACK 44 AUDIO
    TITLE "2Q_t_0271-0287_44"
    INDEX 01 00:46:16
  TRACK 45 AUDIO
    TITLE "2Q_t_0271-0287_45"
    INDEX 01 00:47:33
  TRACK 46 AUDIO
    TITLE "2Q_t_0271-0287_46"
    INDEX 01 00:48:03
  TRACK 47 AUDIO
    TITLE "2Q_t_0271-0287_47"
    INDEX 01 00:49:26
  TRACK 48 AUDIO
    TITLE "2Q_t_0271-0287_48"
    INDEX 01 00:49:71
  TRACK 49 AUDIO
    TITLE "2Q_t_0271-0287_49"
    INDEX 01 00:51:23
  TRACK 50 AUDIO
    TITLE "2Q_t_0271-0287_50"
    INDEX 01 00:51:74
  TRACK 51 AUDIO
    TITLE "2Q_t_0271-0287_51"
    INDEX 01 00:54:33
  TRACK 52 AUDIO
    TITLE "2Q_t_0271-0287_52"
    INDEX 01 00:55:03
  TRACK 53 AUDIO
    TITLE "2Q_t_0271-0287_53"
    INDEX 01 00:56:11
  TRACK 54 AUDIO
    TITLE "2Q_t_0271-0287_54"
    INDEX 01 00:56:62
  TRACK 55 AUDIO
    TITLE "2Q_t_0271-0287_55"
    INDEX 01 00:58:08
  TRACK 56 AUDIO
    TITLE "2Q_t_0271-0287_56"
    INDEX 01 00:58:53
  TRACK 57 AUDIO
    TITLE "2Q_t_0271-0287_57"
    INDEX 01 00:59:66
  TRACK 58 AUDIO
    TITLE "2Q_t_0271-0287_58"
    INDEX 01 01:00:50
  TRACK 59 AUDIO
    TITLE "2Q_t_0271-0287_59"
    INDEX 01 01:03:07
  TRACK 60 AUDIO
    TITLE "2Q_t_0271-0287_60"
    INDEX 01 01:03:52
  TRACK 61 AUDIO
    TITLE "2Q_t_0271-0287_61"
    INDEX 01 01:04:46
  TRACK 62 AUDIO
    TITLE "2Q_t_0271-0287_62"
    INDEX 01 01:05:25
  TRACK 63 AUDIO
    TITLE "2Q_t_0271-0287_63"
    INDEX 01 01:09:06
  TRACK 64 AUDIO
    TITLE "2Q_t_0271-0287_64"
    INDEX 01 01:09:51
  TRACK 65 AUDIO
    TITLE "2Q_t_0271-0287_65"
    INDEX 01 01:10:64
  TRACK 66 AUDIO
    TITLE "2Q_t_0271-0287_66"
    INDEX 01 01:11:34
  TRACK 67 AUDIO
    TITLE "2Q_t_0271-0287_67"
    INDEX 01 01:12:45
  TRACK 68 AUDIO
    TITLE "2Q_t_0271-0287_68"
    INDEX 01 01:13:15
  TRACK 69 AUDIO
    TITLE "2Q_t_0271-0287_69"
    INDEX 01 01:14:34
  TRACK 70 AUDIO
    TITLE "2Q_t_0271-0287_70"
    INDEX 01 01:15:06
  TRACK 71 AUDIO
    TITLE "2Q_t_0271-0287_71"
    INDEX 01 01:17:56
